<?xml version="1.0" encoding="UTF-8"?>
<svg version="1.1" xmlns="http://www.w3.org/2000/svg" width="500" height="500">
<path d="M0 0 C1.50578613 0.45536133 1.50578613 0.45536133 3.04199219 0.91992188 C60.33189471 18.64359542 113.1439003 55.11250129 141.87109375 108.74609375 C148.88490048 122.41707297 153.82221867 136.98294221 157 152 C157.18618896 152.86085205 157.37237793 153.7217041 157.56420898 154.60864258 C159.15565273 162.86447816 159.33936323 170.9758972 159.31567383 179.35229492 C159.31252788 181.66699025 159.33601249 183.98038462 159.36132812 186.29492188 C159.56136489 233.16139039 135.39250911 273.25075589 103.5 305.8125 C92.42467317 316.94810428 79.60447993 327.08597037 66 335 C65.34 335 64.68 335 64 335 C76.42605449 366.39455177 92.20753582 394.88081109 113.6796875 421.046875 C117.13415736 425.45766703 118 428.49507699 118 434 C116.54358532 438.59920426 114.93644335 442.12746026 111 445 C104.13570197 447.43223158 99.23186692 446.70355664 92.25 445 C91.23776367 444.76361816 90.22552734 444.52723633 89.18261719 444.28369141 C86.1137149 443.55128515 83.05604524 442.78419655 80 442 C79.14792969 441.78311523 78.29585938 441.56623047 77.41796875 441.34277344 C41.41706387 431.93542875 7.51427025 414.1232618 -22.875 392.9375 C-23.57173828 392.45643799 -24.26847656 391.97537598 -24.98632812 391.47973633 C-28.4453425 389.03314633 -31.56391717 386.52912364 -34.54296875 383.51171875 C-39.39543554 378.72168056 -43.66038516 374.65320103 -50.796875 374.6953125 C-54.72507212 374.99516117 -58.60436895 375.56900183 -62.50390625 376.12109375 C-71.89378172 377.39246281 -81.2879961 377.33784316 -90.75 377.3125 C-91.66394531 377.3107074 -92.57789063 377.30891479 -93.51953125 377.30706787 C-167.895087 377.01982118 -240.07290803 351.39184651 -292.96899414 298.40161133 C-325.77560829 264.81035502 -341.648192 222.40463341 -341.3704071 175.80033875 C-341.04878642 150.07277139 -333.30445294 126.41229503 -321 104 C-320.65211426 103.36610352 -320.30422852 102.73220703 -319.94580078 102.07910156 C-311.58681851 87.07501532 -300.84077953 74.36201707 -289 62 C-288.29101562 61.24976562 -287.58203125 60.49953125 -286.8515625 59.7265625 C-281.62634726 54.33072798 -275.91869389 49.61508283 -270 45 C-269.46020508 44.57847656 -268.92041016 44.15695313 -268.36425781 43.72265625 C-225.53129014 10.5584745 -173.46501232 -6.61488038 -120 -12 C-119.30261719 -12.07057617 -118.60523438 -12.14115234 -117.88671875 -12.21386719 C-78.61114676 -15.9328467 -37.68726013 -11.43278268 0 0 Z " fill="#31373D" transform="translate(341,40)"/>
<path d="M0 0 C21.97083351 19.7345054 37.47364965 49.68354887 39.96826172 79.203125 C40.07508027 81.61886754 40.15621585 84.03581812 40.21826172 86.453125 C40.26490967 87.55865723 40.26490967 87.55865723 40.3125 88.68652344 C41.5997681 120.26663845 30.80905902 150.86789383 9.78076172 174.640625 C8.26787649 176.25228967 6.74703444 177.85652277 5.21826172 179.453125 C4.48349609 180.26265625 3.74873047 181.0721875 2.99169922 181.90625 C-10.13544448 195.86756002 -28.49479128 206.82425993 -46.78173828 212.453125 C-47.66087891 212.72769531 -48.54001953 213.00226563 -49.44580078 213.28515625 C-61.19569091 216.72208376 -72.88656831 217.82245395 -85.09423828 217.765625 C-86.36952393 217.75998535 -87.64480957 217.7543457 -88.95874023 217.74853516 C-98.25350763 217.62887784 -106.79301314 216.97761802 -115.78173828 214.453125 C-116.83264648 214.16308594 -116.83264648 214.16308594 -117.90478516 213.8671875 C-136.56856562 208.58590814 -155.05803003 199.35165756 -168.78173828 185.453125 C-169.62349609 184.79054688 -170.46525391 184.12796875 -171.33251953 183.4453125 C-175.85816314 179.76416698 -179.22276191 175.0419986 -182.78173828 170.453125 C-183.395896 169.67533691 -183.395896 169.67533691 -184.02246094 168.88183594 C-205.66732632 141.24756944 -212.41420312 108.3275122 -208.90234375 73.96386719 C-205.0340373 42.63732843 -187.01088239 14.20789755 -162.78173828 -5.546875 C-158.5961623 -8.79458184 -154.28937804 -11.76763606 -149.78173828 -14.546875 C-148.86062256 -15.11535156 -148.86062256 -15.11535156 -147.92089844 -15.6953125 C-100.72828047 -44.12776163 -40.80687893 -35.42784118 0 0 Z " fill="#FDFDFD" transform="translate(334.78173828125,129.546875)"/>
<path d="M0 0 C0.81339844 0.30035156 1.62679687 0.60070312 2.46484375 0.91015625 C20.2275348 8.12137177 33.28146899 21.13462859 40.78125 38.73828125 C47.474133 56.65032389 46.94550012 76.17967881 39.45703125 93.75390625 C31.52289259 111.13852684 18.23624888 123.29894751 0.60546875 130.359375 C-13.73865377 135.24097526 -33.13914724 137.36695968 -47.390625 131.31640625 C-48.25171875 130.88199219 -49.1128125 130.44757813 -50 130 C-51.04671875 129.51402344 -52.0934375 129.02804687 -53.171875 128.52734375 C-71.9654529 119.19672937 -84.14298074 104.58864836 -91 85 C-96.53575417 67.93069817 -93.19949896 48.72290636 -85.9375 32.75 C-76.91847503 15.75932069 -61.39926589 4.89313585 -43.96484375 -2.2421875 C-29.94194804 -6.47932145 -13.52254314 -5.20374829 0 0 Z " fill="#31373D" transform="translate(274,157)"/>
</svg>
